<svg xmlns="http://www.w3.org/2000/svg" viewBox="-0.5 -0.5 32 32" id="Game-Die--Streamline-Twemoji.svg" height="32" width="32"><desc>Game Die Streamline Emoji: https://streamlinehq.com</desc><path fill="#A0041E" d="M3.444444444444444 9.472222222222221v0.11797222222222223c0 -0.036166666666666666 0.00947222222222222 -0.07233333333333333 0.012916666666666665 -0.1085L3.444444444444444 9.472222222222221zm11.194444444444443 9.590194444444444c-0.1257222222222222 -0.057694444444444444 -0.24713888888888885 -0.12486111111111109 -0.35477777777777775 -0.21183333333333332L3.930972222222222 10.544305555555555C3.6063333333333327 10.281666666666666 3.444444444444444 9.93636111111111 3.444444444444444 9.590194444444444v10.538277777777777c0 1.7583888888888886 0.9411944444444443 2.139 0.9411944444444443 2.139l9.9665 7.835249999999999c0.17652777777777776 0.1386388888888889 0.32463888888888887 0.22302777777777777 0.45466666666666666 0.2738333333333333 -0.09816666666666667 -0.14983333333333332 -0.16791666666666666 -0.32291666666666663 -0.16791666666666666 -0.5201111111111111V19.062416666666667zm-7.554527777777777 0.3125833333333333c-0.8559444444444444 0 -1.7506388888888886 -0.8671388888888887 -1.9969166666666665 -1.9374999999999998 -0.24713888888888885 -1.0695 0.24713888888888885 -1.9366388888888888 1.1022222222222222 -1.9366388888888888 0.8559444444444444 0 1.7506388888888886 0.8671388888888887 1.9969166666666665 1.9366388888888888 0.24713888888888885 1.070361111111111 -0.24627777777777773 1.9374999999999998 -1.1022222222222222 1.9374999999999998zM11.891944444444444 25.833333333333332c-0.8559444444444444 0 -1.7506388888888886 -0.868 -1.9969166666666665 -1.9374999999999998 -0.24713888888888885 -1.070361111111111 0.24713888888888885 -1.9374999999999998 1.1030833333333332 -1.9374999999999998s1.7506388888888886 0.8671388888888887 1.9969166666666665 1.9374999999999998c0.24627777777777773 1.0695 -0.24713888888888885 1.9374999999999998 -1.1030833333333332 1.9374999999999998z" stroke-width="1"></path><path fill="#DD2E44" d="m27.069027777777773 10.47197222222222 -10.422888888888888 8.37861111111111c-0.08783333333333332 0.07147222222222221 -0.18427777777777776 0.1308888888888889 -0.28502777777777777 0.18255555555555553v10.823305555555555c0 0.2006388888888889 -0.07147222222222221 0.3763055555555555 -0.17222222222222222 0.5287222222222222 0.13347222222222221 -0.049944444444444444 0.28847222222222224 -0.13777777777777778 0.4718888888888889 -0.28244444444444444 1.5680833333333333 -1.233111111111111 9.978555555555554 -7.835249999999999 9.978555555555554 -7.835249999999999S27.555555555555554 21.88686111111111 27.555555555555554 20.12847222222222V9.517861111111111c0 0.3461666666666667 -0.1618888888888889 0.6914722222222223 -0.48652777777777767 0.9541111111111111zm-6.421305555555555 14.407250000000001c-0.20838888888888887 0.9790833333333333 -0.9635833333333332 1.7721666666666664 -1.6860555555555554 1.7721666666666664 -0.721611111111111 0 -1.138388888888889 -0.7930833333333334 -0.93 -1.7721666666666664 0.20838888888888887 -0.9790833333333333 0.9627222222222223 -1.7721666666666664 1.6851944444444444 -1.7721666666666664s1.138388888888889 0.7930833333333334 0.930861111111111 1.7721666666666664zm3.046611111111111 -4.538916666666666c-0.2187222222222222 1.009222222222222 -1.0143888888888888 1.8264166666666666 -1.7756111111111108 1.8264166666666666 -0.760361111111111 0 -1.1986666666666665 -0.8171944444444443 -0.9799444444444443 -1.8264166666666666 0.21958333333333332 -1.009222222222222 1.01525 -1.8264166666666666 1.7747499999999998 -1.8264166666666666 0.7620833333333333 0 1.2003888888888887 0.8171944444444443 0.9808055555555555 1.8264166666666666zm2.637583333333333 -4.395972222222222c-0.21613888888888888 0.9601388888888888 -1.001472222222222 1.736861111111111 -1.752361111111111 1.736861111111111 -0.7508888888888888 0 -1.1840277777777777 -0.7767222222222222 -0.9670277777777777 -1.736861111111111 0.21613888888888888 -0.9584166666666666 1.000611111111111 -1.736 1.7514999999999996 -1.736 0.7517499999999999 0 1.1848888888888887 0.7775833333333333 0.9678888888888889 1.736zm1.2184722222222222 -6.467805555555556c0.0008611111111111111 0.013777777777777778 0.005166666666666667 0.027555555555555555 0.005166666666666667 0.04133333333333333V9.472222222222221l-0.005166666666666667 0.0043055555555555555z" stroke-width="1"></path><path fill="#EA596E" d="M27.069027777777773 8.563749999999999 16.609972222222222 0.4305555555555555c-0.6484166666666666 -0.5252777777777777 -1.7118888888888888 -0.5252777777777777 -2.3611666666666666 0L3.930972222222222 8.636083333333332c-0.29105555555555557 0.23508333333333334 -0.4434722222222222 0.5373333333333333 -0.47447222222222224 0.8464722222222222 -0.0025833333333333333 0.036166666666666666 -0.012055555555555555 0.07147222222222221 -0.012055555555555555 0.10763888888888888 0 0.3461666666666667 0.1618888888888889 0.6914722222222223 0.48652777777777767 0.9541111111111111l10.353138888888887 8.306277777777778c0.10763888888888888 0.08697222222222221 0.22819444444444445 0.15327777777777776 0.35477777777777775 0.21183333333333332v10.794027777777778c0 0.19719444444444445 0.06974999999999999 0.37027777777777776 0.16705555555555554 0.5201111111111111 0.1558611111111111 0.2411111111111111 0.4012777777777778 0.4081666666666666 0.6940555555555555 0.4081666666666666 0.28933333333333333 0 0.5330277777777778 -0.1636111111111111 0.6888888888888889 -0.39955555555555555 0.10074999999999999 -0.15155555555555553 0.17222222222222222 -0.3272222222222222 0.17222222222222222 -0.5287222222222222V19.03313888888889c0.10074999999999999 -0.05166666666666666 0.19719444444444445 -0.11108333333333333 0.28502777777777777 -0.18255555555555553l10.422888888888888 -8.37861111111111c0.32463888888888887 -0.26263888888888887 0.48652777777777767 -0.6079444444444444 0.48652777777777767 -0.9541111111111111 0 -0.013777777777777778 -0.0043055555555555555 -0.027555555555555555 -0.005166666666666667 -0.042194444444444444 -0.012055555555555555 -0.33152777777777775 -0.17049999999999998 -0.6604722222222222 -0.48136111111111113 -0.9119166666666666zM15.930555555555554 7.4632499999999995c1.386388888888889 0 2.5109999999999997 0.899 2.5109999999999997 2.0089722222222224 0 1.1099722222222221 -1.124611111111111 2.0089722222222224 -2.5109999999999997 2.0089722222222224 -1.3872499999999999 0 -2.5109999999999997 -0.899 -2.5109999999999997 -2.0089722222222224 0 -1.1099722222222221 1.1237499999999998 -2.0089722222222224 2.5109999999999997 -2.0089722222222224z" stroke-width="1"></path><path fill="#FFFFFF" d="M13.419555555555554 9.472222222222221a2.5109999999999997 2.0089722222222224 0 1 0 5.021999999999999 0 2.5109999999999997 2.0089722222222224 0 1 0 -5.021999999999999 0" stroke-width="1"></path><path fill="#FFFFFF" d="M25.364027777777775 14.208333333333332c-0.7508888888888888 0 -1.535361111111111 0.7775833333333333 -1.7514999999999996 1.736 -0.217 0.9601388888888888 0.21613888888888888 1.736861111111111 0.9670277777777777 1.736861111111111s1.5362222222222222 -0.7767222222222222 1.752361111111111 -1.736861111111111c0.217 -0.9584166666666666 -0.21613888888888888 -1.736 -0.9678888888888889 -1.736zm-2.6496388888888887 4.305555555555555c-0.760361111111111 0 -1.5560277777777776 0.8171944444444443 -1.7747499999999998 1.8264166666666666 -0.2187222222222222 1.009222222222222 0.21958333333333332 1.8264166666666666 0.9799444444444443 1.8264166666666666 0.7612222222222221 0 1.5568888888888888 -0.8171944444444443 1.7756111111111108 -1.8264166666666666 0.2187222222222222 -1.009222222222222 -0.21958333333333332 -1.8264166666666666 -0.9808055555555555 -1.8264166666666666zm-2.998388888888889 4.593166666666666c-0.7224722222222222 0 -1.4768055555555555 0.7930833333333334 -1.6851944444444444 1.7721666666666664 -0.20838888888888887 0.9790833333333333 0.20838888888888887 1.7721666666666664 0.93 1.7721666666666664 0.7224722222222222 0 1.4776666666666665 -0.7930833333333334 1.6860555555555554 -1.7721666666666664 0.20838888888888887 -0.9790833333333333 -0.20838888888888887 -1.7721666666666664 -0.930861111111111 -1.7721666666666664z" stroke-width="1"></path><path fill="#E1E8ED" d="M6.189666666666666 15.500861111111112c-0.8559444444444444 0 -1.349361111111111 0.8671388888888887 -1.1022222222222222 1.9366388888888888 0.24713888888888885 1.070361111111111 1.140972222222222 1.9374999999999998 1.9969166666666665 1.9374999999999998s1.349361111111111 -0.8671388888888887 1.1022222222222222 -1.9374999999999998c-0.24627777777777773 -1.0695 -1.140972222222222 -1.9366388888888888 -1.9969166666666665 -1.9366388888888888zm4.8075833333333335 6.457472222222221c-0.8559444444444444 0 -1.349361111111111 0.8671388888888887 -1.1030833333333332 1.9374999999999998 0.24713888888888885 1.0695 1.1418333333333333 1.9374999999999998 1.9977777777777774 1.9374999999999998 0.8559444444444444 0 1.349361111111111 -0.868 1.1030833333333332 -1.9374999999999998 -0.24713888888888885 -1.070361111111111 -1.1418333333333333 -1.9374999999999998 -1.9977777777777774 -1.9374999999999998z" stroke-width="1"></path></svg>